# xmcd
#
# Track frame offsets: 
#        150
#        12247
#        24432
#        36677
#        49990
#        63029
#        77294
#        91805
#        103421
#        116662
#        130546
#        143072
#        158322
#        174787
#        190988
#        204282
#        218203
#        229890
#        243070
#        256736
#        269163
#        283148
#        294651
#        307721
#        320551
#
# Disc length: 4451 seconds
#
# Revision: 0
# Processed by: cddbd v1.5.2PL0 Copyright (c) Steve Scherf et al.
# Submitted via: ExactAudioCopyFreeDBPlugin 1.0
#
DISCID=55116119
DTITLE=Various Artist - Classic Blues, Jazz and Vaudeville Singers Vol. 4 (1921
DTITLE=1928)
DYEAR=1997
DGENRE=Blues
TTITLE0=Lillyn Brown - If That's What You Want Here It Is
TTITLE1=Lillyn Brown - If That's What You Want Here It Is
TTITLE2=Lillyn Brown - Ever Lovin' Blues
TTITLE3=Lillyn Brown - Bad-Land Blues
TTITLE4=Eliza Christmas Lee - I Ain't Givin' Nothin' Away
TTITLE5=Eliza Christmas Lee - Arkansas Blues
TTITLE6=Marion Harrison - Baby Can't You Understand
TTITLE7=Marion Harrison - So Blue
TTITLE8=Marion Harrison - So Blue
TTITLE9=J. Churchill - Mad Man Blues
TTITLE10=Josie Harley - I'm Through with You as I Can Be
TTITLE11=Josie Harley - 2 A. M. Blues 
TTITLE12=Helen Baxter - Cruel Back Bitin' Blues (A Heart Aching Chant)
TTITLE13=Helen Baxter - You Got Ev'ry Thing a Sweet Mama Needs (But Me
TTITLE13=)
TTITLE14=Mandy Lee - If Your Man Is Like My Man
TTITLE15=Viola McCoy - Midnight Blues (A Wee Hour Chant)
TTITLE16=Lena Wilson - I Don't Let No One Man Worry Me
TTITLE17=Lillian Harris - Down Hearted Blues
TTITLE18=Edna Hicks - I'm Goin' Away (Just to Wear You Off My Mind)
TTITLE19=Edna Hicks - You've Got Everything a Sweet Mamma Needs but Me
TTITLE20=Gladys Bryant - Beale Street Mamma
TTITLE21=Faye Barnes - The Gouge of Armour Avenue
TTITLE22=Bessie Brown - Nobody but My Baby Is Getting My Love
TTITLE23=Bessie Brown - St. Louis Blues
TTITLE24=Bessie Brown - Someone Else May Be There While I'm Gone
EXTD=
EXTT0=
EXTT1=
EXTT2=
EXTT3=
EXTT4=
EXTT5=
EXTT6=
EXTT7=
EXTT8=
EXTT9=
EXTT10=
EXTT11=
EXTT12=
EXTT13=
EXTT14=
EXTT15=
EXTT16=
EXTT17=
EXTT18=
EXTT19=
EXTT20=
EXTT21=
EXTT22=
EXTT23=
EXTT24=
PLAYORDER=
